<?xml version="1.0" encoding="utf-8"?>
<!-- Generator: Adobe Illustrator 21.0.0, SVG Export Plug-In . SVG Version: 6.00 Build 0)  -->
<svg version="1.1" id="icons" xmlns="http://www.w3.org/2000/svg" xmlns:xlink="http://www.w3.org/1999/xlink" x="0px" y="0px"
	 viewBox="0 0 24 24" style="enable-background:new 0 0 24 24;" xml:space="preserve">
<style type="text/css">
	.st0{fill:#10CFBD;}
</style>
<g>
	<g>
		<path class="st0" d="M12,13.5c-3.6,0-6.5-2.9-6.5-6.5S8.4,0.5,12,0.5s6.5,2.9,6.5,6.5S15.6,13.5,12,13.5z M12,1.5
			C8.9,1.5,6.5,4,6.5,7c0,3.1,2.5,5.5,5.5,5.5s5.5-2.5,5.5-5.5C17.5,4,15.1,1.5,12,1.5z"/>
	</g>
	<g>
		<path class="st0" d="M2,23.5h-1c0-6,4.9-10.9,10.9-10.9v1C6.5,13.5,2,18,2,23.5z"/>
	</g>
	<g>
		<path class="st0" d="M22.9,23.5h-1c0-5.5-4.5-10-10-10v-1C18,12.6,22.9,17.5,22.9,23.5z"/>
	</g>
</g>
</svg>
